<svg xmlns="http://www.w3.org/2000/svg" width="81.302" height="34.875" viewBox="0 0 81.302 34.875"><path d="M10.125-4.5a4.336,4.336,0,0,0,3.182-1.318A4.336,4.336,0,0,0,14.625-9a4.336,4.336,0,0,0-1.318-3.182A4.336,4.336,0,0,0,10.125-13.5a4.336,4.336,0,0,0-3.182,1.318A4.336,4.336,0,0,0,5.625-9,4.336,4.336,0,0,0,6.943-5.818,4.336,4.336,0,0,0,10.125-4.5Zm9-4.5a8.9,8.9,0,0,1-.686,3.445,8.924,8.924,0,0,1-1.951,2.918A8.924,8.924,0,0,1,13.57-.686,8.9,8.9,0,0,1,10.125,0,8.9,8.9,0,0,1,6.68-.686,8.924,8.924,0,0,1,3.762-2.637,8.924,8.924,0,0,1,1.811-5.555,8.9,8.9,0,0,1,1.125-9a8.9,8.9,0,0,1,.686-3.445,8.924,8.924,0,0,1,1.951-2.918A8.924,8.924,0,0,1,6.68-17.314,8.9,8.9,0,0,1,10.125-18a8.9,8.9,0,0,1,3.445.686,8.854,8.854,0,0,1,1.055.527V-22.5h4.5Zm9.823,9A8.9,8.9,0,0,1,25.5-.686a8.924,8.924,0,0,1-2.918-1.951,8.924,8.924,0,0,1-1.951-2.918A8.9,8.9,0,0,1,19.948-9a8.9,8.9,0,0,1,.686-3.445,8.924,8.924,0,0,1,1.951-2.918A8.924,8.924,0,0,1,25.5-17.314,8.9,8.9,0,0,1,28.948-18a8.9,8.9,0,0,1,3.445.686,8.924,8.924,0,0,1,2.918,1.951,8.924,8.924,0,0,1,1.951,2.918A8.9,8.9,0,0,1,37.948-9a8.9,8.9,0,0,1-.686,3.445,8.924,8.924,0,0,1-1.951,2.918A8.924,8.924,0,0,1,32.393-.686,8.9,8.9,0,0,1,28.948,0Zm0-4.5a4.336,4.336,0,0,0,3.182-1.318A4.336,4.336,0,0,0,33.448-9a4.336,4.336,0,0,0-1.318-3.182A4.336,4.336,0,0,0,28.948-13.5a4.336,4.336,0,0,0-3.182,1.318A4.336,4.336,0,0,0,24.448-9a4.336,4.336,0,0,0,1.318,3.182A4.336,4.336,0,0,0,28.948-4.5ZM43.5,0H39V-18h4.5Zm-2.25-20.25a2.708,2.708,0,0,1-1.986-.826,2.708,2.708,0,0,1-.826-1.986,2.708,2.708,0,0,1,.826-1.986,2.708,2.708,0,0,1,1.986-.826,2.708,2.708,0,0,1,1.986.826,2.708,2.708,0,0,1,.826,1.986,2.708,2.708,0,0,1-.826,1.986A2.708,2.708,0,0,1,41.249-20.25ZM50.1-9V0H45.6V-9a8.9,8.9,0,0,1,.686-3.445,8.924,8.924,0,0,1,1.951-2.918,8.924,8.924,0,0,1,2.918-1.951A8.9,8.9,0,0,1,54.6-18a8.9,8.9,0,0,1,3.445.686,8.924,8.924,0,0,1,2.918,1.951,8.924,8.924,0,0,1,1.951,2.918A8.9,8.9,0,0,1,63.6-9V0H59.1V-9a4.336,4.336,0,0,0-1.318-3.182A4.336,4.336,0,0,0,54.6-13.5a4.336,4.336,0,0,0-3.182,1.318A4.336,4.336,0,0,0,50.1-9ZM73.427-4.5a4.336,4.336,0,0,0,3.182-1.318A4.336,4.336,0,0,0,77.927-9a4.336,4.336,0,0,0-1.318-3.182A4.336,4.336,0,0,0,73.427-13.5a4.336,4.336,0,0,0-3.182,1.318A4.336,4.336,0,0,0,68.927-9a4.336,4.336,0,0,0,1.318,3.182A4.336,4.336,0,0,0,73.427-4.5Zm4.5,3.287a8.854,8.854,0,0,1-1.055.527A8.9,8.9,0,0,1,73.427,0a8.9,8.9,0,0,1-3.445-.686,8.924,8.924,0,0,1-2.918-1.951,8.924,8.924,0,0,1-1.951-2.918A8.9,8.9,0,0,1,64.427-9a8.9,8.9,0,0,1,.686-3.445,8.924,8.924,0,0,1,1.951-2.918,8.924,8.924,0,0,1,2.918-1.951A8.9,8.9,0,0,1,73.427-18a8.9,8.9,0,0,1,3.445.686,8.924,8.924,0,0,1,2.918,1.951,8.924,8.924,0,0,1,1.951,2.918A8.9,8.9,0,0,1,82.427-9V0a8.9,8.9,0,0,1-.686,3.445,8.924,8.924,0,0,1-1.951,2.918,8.924,8.924,0,0,1-2.918,1.951A8.9,8.9,0,0,1,73.427,9V4.5a4.336,4.336,0,0,0,3.182-1.318A4.336,4.336,0,0,0,77.927,0Z" transform="translate(-1.125 25.875)"/></svg>